<svg width="1440" height="1024" viewBox="0 0 1440 1024" fill="none" xmlns="http://www.w3.org/2000/svg">
<g clip-path="url(#clip0_5_29)">
<rect width="1440" height="1024" fill="white"/>
<rect x="46" y="726" width="436" height="200" rx="19" fill="#D9D9D9"/>
<rect width="1440" height="168" fill="#301212"/>
<path d="M998.93 88.3196C998.066 88.3196 997.282 88.1568 996.578 87.8313C995.873 87.4999 995.314 87.0234 994.9 86.402C994.486 85.7746 994.278 85.017 994.278 84.1293C994.278 83.348 994.432 82.7147 994.74 82.2294C995.048 81.7382 995.459 81.3535 995.974 81.0753C996.489 80.7971 997.057 80.59 997.679 80.4538C998.306 80.3118 998.936 80.1993 999.57 80.1165C1000.4 80.0099 1001.07 79.93 1001.58 79.8768C1002.11 79.8176 1002.48 79.7199 1002.72 79.5838C1002.96 79.4477 1003.09 79.2109 1003.09 78.8736V78.8026C1003.09 77.9266 1002.85 77.246 1002.37 76.7607C1001.89 76.2753 1001.17 76.0327 1000.21 76.0327C999.209 76.0327 998.424 76.2517 997.856 76.6896C997.288 77.1276 996.888 77.5952 996.658 78.0923L994.669 77.3821C995.024 76.5535 995.498 75.9084 996.089 75.4467C996.687 74.9792 997.338 74.6536 998.043 74.4702C998.753 74.2808 999.451 74.1861 1000.14 74.1861C1000.58 74.1861 1001.08 74.2393 1001.65 74.3459C1002.22 74.4465 1002.77 74.6566 1003.31 74.9762C1003.85 75.2958 1004.29 75.7782 1004.65 76.4233C1005 77.0684 1005.18 77.9325 1005.18 79.0156V88H1003.09V86.1534H1002.98C1002.84 86.4493 1002.6 86.766 1002.27 87.1033C1001.94 87.4407 1001.5 87.7277 1000.95 87.9645C1000.4 88.2012 999.723 88.3196 998.93 88.3196ZM999.25 86.4375C1000.08 86.4375 1000.78 86.2747 1001.35 85.9492C1001.92 85.6237 1002.35 85.2035 1002.64 84.6886C1002.94 84.1737 1003.09 83.6321 1003.09 83.0639V81.1463C1003 81.2528 1002.8 81.3505 1002.5 81.4393C1002.2 81.5221 1001.86 81.5961 1001.47 81.6612C1001.08 81.7204 1000.71 81.7737 1000.34 81.821C999.981 81.8625 999.688 81.898 999.463 81.9276C998.919 81.9986 998.41 82.114 997.936 82.2738C997.469 82.4277 997.09 82.6615 996.8 82.9751C996.516 83.2829 996.374 83.7031 996.374 84.2358C996.374 84.9638 996.643 85.5142 997.181 85.8871C997.726 86.254 998.415 86.4375 999.25 86.4375ZM1009.29 88V69.8182H1011.38V76.5298H1011.56C1011.72 76.2931 1011.93 75.9912 1012.2 75.6243C1012.48 75.2514 1012.88 74.92 1013.39 74.63C1013.91 74.334 1014.62 74.1861 1015.5 74.1861C1016.65 74.1861 1017.66 74.4731 1018.54 75.0472C1019.42 75.6213 1020.1 76.4351 1020.59 77.4886C1021.08 78.5421 1021.33 79.785 1021.33 81.2173C1021.33 82.6615 1021.08 83.9132 1020.59 84.9727C1020.1 86.0262 1019.42 86.8429 1018.55 87.4229C1017.68 87.997 1016.67 88.2841 1015.54 88.2841C1014.66 88.2841 1013.96 88.1391 1013.43 87.8491C1012.91 87.5531 1012.5 87.2187 1012.22 86.8459C1011.93 86.4671 1011.72 86.1534 1011.56 85.9048H1011.31V88H1009.29ZM1011.35 81.1818C1011.35 82.2116 1011.5 83.1201 1011.8 83.9073C1012.1 84.6886 1012.54 85.3011 1013.12 85.745C1013.7 86.183 1014.41 86.402 1015.25 86.402C1016.13 86.402 1016.86 86.1712 1017.45 85.7095C1018.04 85.242 1018.48 84.6146 1018.78 83.8274C1019.08 83.0343 1019.23 82.1525 1019.23 81.1818C1019.23 80.223 1019.08 79.3589 1018.79 78.5895C1018.5 77.8142 1018.06 77.2016 1017.47 76.7518C1016.88 76.296 1016.14 76.0682 1015.25 76.0682C1014.4 76.0682 1013.69 76.2842 1013.11 76.7163C1012.53 77.1424 1012.09 77.7402 1011.79 78.5096C1011.5 79.2731 1011.35 80.1638 1011.35 81.1818ZM1030.07 88.2841C1028.84 88.2841 1027.76 87.9911 1026.83 87.4052C1025.91 86.8192 1025.19 85.9995 1024.67 84.946C1024.15 83.8925 1023.89 82.6615 1023.89 81.2528C1023.89 79.8324 1024.15 78.5924 1024.67 77.533C1025.19 76.4736 1025.91 75.6509 1026.83 75.065C1027.76 74.479 1028.84 74.1861 1030.07 74.1861C1031.3 74.1861 1032.38 74.479 1033.3 75.065C1034.23 75.6509 1034.95 76.4736 1035.47 77.533C1035.99 78.5924 1036.25 79.8324 1036.25 81.2528C1036.25 82.6615 1035.99 83.8925 1035.47 84.946C1034.95 85.9995 1034.23 86.8192 1033.3 87.4052C1032.38 87.9911 1031.3 88.2841 1030.07 88.2841ZM1030.07 86.402C1031.01 86.402 1031.78 86.1623 1032.38 85.6829C1032.98 85.2035 1033.43 84.5732 1033.72 83.7919C1034.01 83.0107 1034.16 82.1643 1034.16 81.2528C1034.16 80.3414 1034.01 79.4921 1033.72 78.7049C1033.43 77.9177 1032.98 77.2815 1032.38 76.7962C1031.78 76.3108 1031.01 76.0682 1030.07 76.0682C1029.14 76.0682 1028.37 76.3108 1027.76 76.7962C1027.16 77.2815 1026.71 77.9177 1026.42 78.7049C1026.13 79.4921 1025.99 80.3414 1025.99 81.2528C1025.99 82.1643 1026.13 83.0107 1026.42 83.7919C1026.71 84.5732 1027.16 85.2035 1027.76 85.6829C1028.37 86.1623 1029.14 86.402 1030.07 86.402ZM1048.04 82.4247V74.3636H1050.14V88H1048.04V85.6918H1047.9C1047.58 86.3842 1047.08 86.9731 1046.41 87.4585C1045.73 87.9379 1044.88 88.1776 1043.85 88.1776C1043 88.1776 1042.24 87.9911 1041.58 87.6183C1040.92 87.2395 1040.4 86.6713 1040.02 85.9137C1039.64 85.1502 1039.45 84.1884 1039.45 83.0284V74.3636H1041.54V82.8864C1041.54 83.8807 1041.82 84.6738 1042.38 85.2656C1042.94 85.8575 1043.66 86.1534 1044.53 86.1534C1045.05 86.1534 1045.58 86.0202 1046.12 85.7539C1046.66 85.4876 1047.12 85.0792 1047.48 84.5288C1047.86 83.9783 1048.04 83.277 1048.04 82.4247ZM1059.91 74.3636V76.1392H1052.84V74.3636H1059.91ZM1054.9 71.0966H1056.99V84.0938C1056.99 84.6856 1057.08 85.1295 1057.25 85.4254C1057.43 85.7154 1057.65 85.9107 1057.93 86.0114C1058.2 86.1061 1058.5 86.1534 1058.8 86.1534C1059.04 86.1534 1059.22 86.1416 1059.37 86.1179C1059.52 86.0883 1059.64 86.0646 1059.73 86.0469L1060.15 87.929C1060.01 87.9822 1059.81 88.0355 1059.56 88.0888C1059.3 88.148 1058.98 88.1776 1058.59 88.1776C1058 88.1776 1057.42 88.0503 1056.85 87.7958C1056.29 87.5413 1055.82 87.1536 1055.45 86.6328C1055.08 86.112 1054.9 85.455 1054.9 84.6619V71.0966ZM1078.68 82.4247V74.3636H1080.78V88H1078.68V85.6918H1078.54C1078.22 86.3842 1077.72 86.9731 1077.05 87.4585C1076.37 87.9379 1075.52 88.1776 1074.49 88.1776C1073.64 88.1776 1072.88 87.9911 1072.22 87.6183C1071.56 87.2395 1071.04 86.6713 1070.66 85.9137C1070.28 85.1502 1070.09 84.1884 1070.09 83.0284V74.3636H1072.18V82.8864C1072.18 83.8807 1072.46 84.6738 1073.02 85.2656C1073.58 85.8575 1074.3 86.1534 1075.17 86.1534C1075.69 86.1534 1076.22 86.0202 1076.76 85.7539C1077.3 85.4876 1077.76 85.0792 1078.12 84.5288C1078.5 83.9783 1078.68 83.277 1078.68 82.4247ZM1094.27 77.4176L1092.39 77.9503C1092.27 77.6366 1092.1 77.3318 1091.87 77.0359C1091.64 76.734 1091.34 76.4854 1090.94 76.2901C1090.55 76.0948 1090.05 75.9972 1089.44 75.9972C1088.61 75.9972 1087.91 76.1895 1087.36 76.5742C1086.81 76.953 1086.53 77.4354 1086.53 78.0213C1086.53 78.5421 1086.72 78.9535 1087.1 79.2553C1087.48 79.5572 1088.07 79.8087 1088.88 80.0099L1090.9 80.5071C1092.12 80.803 1093.03 81.2558 1093.63 81.8654C1094.22 82.4691 1094.52 83.2474 1094.52 84.2003C1094.52 84.9815 1094.3 85.6799 1093.85 86.2955C1093.4 86.911 1092.78 87.3963 1091.98 87.7514C1091.18 88.1065 1090.26 88.2841 1089.2 88.2841C1087.8 88.2841 1086.65 87.9822 1085.74 87.3786C1084.83 86.7749 1084.25 85.893 1084.01 84.733L1086 84.2358C1086.19 84.9697 1086.55 85.5201 1087.07 85.8871C1087.61 86.254 1088.3 86.4375 1089.16 86.4375C1090.14 86.4375 1090.91 86.2304 1091.49 85.8161C1092.07 85.3958 1092.36 84.8928 1092.36 84.3068C1092.36 83.8333 1092.19 83.4368 1091.86 83.1172C1091.53 82.7917 1091.02 82.549 1090.33 82.3892L1088.06 81.8565C1086.81 81.5606 1085.89 81.1019 1085.31 80.4805C1084.73 79.8531 1084.44 79.0689 1084.44 78.1278C1084.44 77.3584 1084.65 76.6778 1085.09 76.0859C1085.52 75.4941 1086.12 75.0295 1086.87 74.6921C1087.63 74.3548 1088.49 74.1861 1089.44 74.1861C1090.79 74.1861 1091.85 74.482 1092.62 75.0739C1093.4 75.6657 1093.95 76.447 1094.27 77.4176Z" fill="white"/>
<path d="M1160.92 93.1136V74.3636H1162.94V76.5298H1163.19C1163.34 76.2931 1163.56 75.9912 1163.83 75.6243C1164.11 75.2514 1164.5 74.92 1165.02 74.63C1165.54 74.334 1166.24 74.1861 1167.13 74.1861C1168.28 74.1861 1169.29 74.4731 1170.17 75.0472C1171.04 75.6213 1171.73 76.4351 1172.22 77.4886C1172.71 78.5421 1172.96 79.785 1172.96 81.2173C1172.96 82.6615 1172.71 83.9132 1172.22 84.9727C1171.73 86.0262 1171.05 86.8429 1170.18 87.4229C1169.31 87.997 1168.3 88.2841 1167.17 88.2841C1166.29 88.2841 1165.59 88.1391 1165.06 87.8491C1164.54 87.5531 1164.13 87.2187 1163.85 86.8459C1163.56 86.4671 1163.34 86.1534 1163.19 85.9048H1163.01V93.1136H1160.92ZM1162.98 81.1818C1162.98 82.2116 1163.13 83.1201 1163.43 83.9073C1163.73 84.6886 1164.17 85.3011 1164.75 85.745C1165.33 86.183 1166.04 86.402 1166.88 86.402C1167.76 86.402 1168.49 86.1712 1169.08 85.7095C1169.67 85.242 1170.11 84.6146 1170.41 83.8274C1170.71 83.0343 1170.86 82.1525 1170.86 81.1818C1170.86 80.223 1170.71 79.3589 1170.42 78.5895C1170.13 77.8142 1169.69 77.2016 1169.09 76.7518C1168.51 76.296 1167.77 76.0682 1166.88 76.0682C1166.03 76.0682 1165.32 76.2842 1164.74 76.7163C1164.16 77.1424 1163.72 77.7402 1163.42 78.5096C1163.13 79.2731 1162.98 80.1638 1162.98 81.1818ZM1176.15 88V74.3636H1178.18V76.4233H1178.32C1178.57 75.7486 1179.02 75.2011 1179.67 74.7809C1180.32 74.3607 1181.05 74.1506 1181.87 74.1506C1182.02 74.1506 1182.22 74.1535 1182.45 74.1594C1182.68 74.1654 1182.85 74.1742 1182.97 74.1861V76.3168C1182.9 76.299 1182.74 76.2724 1182.48 76.2369C1182.23 76.1954 1181.97 76.1747 1181.69 76.1747C1181.03 76.1747 1180.44 76.3138 1179.92 76.592C1179.4 76.8642 1178.99 77.243 1178.69 77.7283C1178.4 78.2077 1178.25 78.7552 1178.25 79.3707V88H1176.15ZM1190.58 88.2841C1189.35 88.2841 1188.27 87.9911 1187.34 87.4052C1186.41 86.8192 1185.69 85.9995 1185.17 84.946C1184.66 83.8925 1184.4 82.6615 1184.4 81.2528C1184.4 79.8324 1184.66 78.5924 1185.17 77.533C1185.69 76.4736 1186.41 75.6509 1187.34 75.065C1188.27 74.479 1189.35 74.1861 1190.58 74.1861C1191.81 74.1861 1192.89 74.479 1193.81 75.065C1194.74 75.6509 1195.46 76.4736 1195.98 77.533C1196.5 78.5924 1196.76 79.8324 1196.76 81.2528C1196.76 82.6615 1196.5 83.8925 1195.98 84.946C1195.46 85.9995 1194.74 86.8192 1193.81 87.4052C1192.89 87.9911 1191.81 88.2841 1190.58 88.2841ZM1190.58 86.402C1191.51 86.402 1192.28 86.1623 1192.89 85.6829C1193.49 85.2035 1193.94 84.5732 1194.23 83.7919C1194.52 83.0107 1194.66 82.1643 1194.66 81.2528C1194.66 80.3414 1194.52 79.4921 1194.23 78.7049C1193.94 77.9177 1193.49 77.2815 1192.89 76.7962C1192.28 76.3108 1191.51 76.0682 1190.58 76.0682C1189.64 76.0682 1188.87 76.3108 1188.27 76.7962C1187.67 77.2815 1187.22 77.9177 1186.93 78.7049C1186.64 79.4921 1186.49 80.3414 1186.49 81.2528C1186.49 82.1643 1186.64 83.0107 1186.93 83.7919C1187.22 84.5732 1187.67 85.2035 1188.27 85.6829C1188.87 86.1623 1189.64 86.402 1190.58 86.402ZM1205.1 88.2841C1203.97 88.2841 1202.97 87.997 1202.1 87.4229C1201.23 86.8429 1200.54 86.0262 1200.05 84.9727C1199.56 83.9132 1199.32 82.6615 1199.32 81.2173C1199.32 79.785 1199.56 78.5421 1200.05 77.4886C1200.54 76.4351 1201.23 75.6213 1202.1 75.0472C1202.98 74.4731 1203.99 74.1861 1205.14 74.1861C1206.03 74.1861 1206.73 74.334 1207.24 74.63C1207.77 74.92 1208.16 75.2514 1208.43 75.6243C1208.71 75.9912 1208.93 76.2931 1209.08 76.5298H1209.26V69.8182H1211.35V88H1209.33V85.9048H1209.08C1208.93 86.1534 1208.71 86.4671 1208.43 86.8459C1208.14 87.2187 1207.74 87.5531 1207.21 87.8491C1206.68 88.1391 1205.98 88.2841 1205.1 88.2841ZM1205.39 86.402C1206.23 86.402 1206.94 86.183 1207.52 85.745C1208.1 85.3011 1208.54 84.6886 1208.84 83.9073C1209.14 83.1201 1209.3 82.2116 1209.3 81.1818C1209.3 80.1638 1209.15 79.2731 1208.85 78.5096C1208.56 77.7402 1208.12 77.1424 1207.54 76.7163C1206.96 76.2842 1206.24 76.0682 1205.39 76.0682C1204.5 76.0682 1203.76 76.296 1203.17 76.7518C1202.58 77.2016 1202.14 77.8142 1201.85 78.5895C1201.56 79.3589 1201.41 80.223 1201.41 81.1818C1201.41 82.1525 1201.56 83.0343 1201.86 83.8274C1202.16 84.6146 1202.6 85.242 1203.19 85.7095C1203.78 86.1712 1204.51 86.402 1205.39 86.402ZM1224.08 82.4247V74.3636H1226.17V88H1224.08V85.6918H1223.93C1223.62 86.3842 1223.12 86.9731 1222.44 87.4585C1221.77 87.9379 1220.92 88.1776 1219.89 88.1776C1219.03 88.1776 1218.28 87.9911 1217.61 87.6183C1216.95 87.2395 1216.43 86.6713 1216.05 85.9137C1215.67 85.1502 1215.48 84.1884 1215.48 83.0284V74.3636H1217.58V82.8864C1217.58 83.8807 1217.86 84.6738 1218.41 85.2656C1218.97 85.8575 1219.69 86.1534 1220.56 86.1534C1221.08 86.1534 1221.61 86.0202 1222.15 85.7539C1222.69 85.4876 1223.15 85.0792 1223.52 84.5288C1223.89 83.9783 1224.08 83.277 1224.08 82.4247ZM1235.55 88.2841C1234.27 88.2841 1233.17 87.9822 1232.25 87.3786C1231.32 86.7749 1230.61 85.9433 1230.12 84.8839C1229.62 83.8245 1229.37 82.6141 1229.37 81.2528C1229.37 79.8679 1229.62 78.6457 1230.13 77.5863C1230.65 76.521 1231.36 75.6894 1232.28 75.0916C1233.21 74.4879 1234.28 74.1861 1235.51 74.1861C1236.47 74.1861 1237.34 74.3636 1238.11 74.7188C1238.88 75.0739 1239.51 75.571 1240 76.2102C1240.49 76.8494 1240.79 77.5952 1240.91 78.4474H1238.82C1238.66 77.826 1238.3 77.2756 1237.75 76.7962C1237.21 76.3108 1236.47 76.0682 1235.55 76.0682C1234.73 76.0682 1234.02 76.2812 1233.4 76.7074C1232.79 77.1276 1232.31 77.7224 1231.97 78.4918C1231.63 79.2553 1231.47 80.152 1231.47 81.1818C1231.47 82.2353 1231.63 83.1527 1231.96 83.9339C1232.3 84.7152 1232.77 85.3219 1233.38 85.7539C1234 86.186 1234.72 86.402 1235.55 86.402C1236.09 86.402 1236.59 86.3073 1237.03 86.1179C1237.48 85.9285 1237.85 85.6562 1238.16 85.3011C1238.47 84.946 1238.69 84.5199 1238.82 84.0227H1240.91C1240.79 84.8277 1240.5 85.5527 1240.03 86.1978C1239.57 86.837 1238.96 87.346 1238.19 87.7248C1237.44 88.0977 1236.56 88.2841 1235.55 88.2841ZM1249.9 74.3636V76.1392H1242.84V74.3636H1249.9ZM1244.9 71.0966H1246.99V84.0938C1246.99 84.6856 1247.08 85.1295 1247.25 85.4254C1247.43 85.7154 1247.65 85.9107 1247.92 86.0114C1248.2 86.1061 1248.5 86.1534 1248.8 86.1534C1249.03 86.1534 1249.22 86.1416 1249.37 86.1179C1249.52 86.0883 1249.64 86.0646 1249.73 86.0469L1250.15 87.929C1250.01 87.9822 1249.81 88.0355 1249.56 88.0888C1249.3 88.148 1248.98 88.1776 1248.59 88.1776C1248 88.1776 1247.42 88.0503 1246.85 87.7958C1246.29 87.5413 1245.82 87.1536 1245.45 86.6328C1245.08 86.112 1244.9 85.455 1244.9 84.6619V71.0966ZM1262.47 77.4176L1260.59 77.9503C1260.47 77.6366 1260.3 77.3318 1260.07 77.0359C1259.84 76.734 1259.53 76.4854 1259.14 76.2901C1258.75 76.0948 1258.25 75.9972 1257.64 75.9972C1256.81 75.9972 1256.11 76.1895 1255.56 76.5742C1255 76.953 1254.73 77.4354 1254.73 78.0213C1254.73 78.5421 1254.92 78.9535 1255.3 79.2553C1255.68 79.5572 1256.27 79.8087 1257.07 80.0099L1259.1 80.5071C1260.32 80.803 1261.23 81.2558 1261.82 81.8654C1262.42 82.4691 1262.72 83.2474 1262.72 84.2003C1262.72 84.9815 1262.49 85.6799 1262.05 86.2955C1261.6 86.911 1260.98 87.3963 1260.18 87.7514C1259.38 88.1065 1258.45 88.2841 1257.39 88.2841C1256 88.2841 1254.85 87.9822 1253.94 87.3786C1253.03 86.7749 1252.45 85.893 1252.21 84.733L1254.2 84.2358C1254.39 84.9697 1254.74 85.5201 1255.27 85.8871C1255.8 86.254 1256.5 86.4375 1257.36 86.4375C1258.33 86.4375 1259.11 86.2304 1259.68 85.8161C1260.26 85.3958 1260.55 84.8928 1260.55 84.3068C1260.55 83.8333 1260.39 83.4368 1260.06 83.1172C1259.73 82.7917 1259.22 82.549 1258.53 82.3892L1256.26 81.8565C1255.01 81.5606 1254.09 81.1019 1253.5 80.4805C1252.92 79.8531 1252.63 79.0689 1252.63 78.1278C1252.63 77.3584 1252.85 76.6778 1253.28 76.0859C1253.72 75.4941 1254.32 75.0295 1255.07 74.6921C1255.82 74.3548 1256.68 74.1861 1257.64 74.1861C1258.99 74.1861 1260.05 74.482 1260.82 75.0739C1261.6 75.6657 1262.15 76.447 1262.47 77.4176Z" fill="white"/>
<path d="M44 109H22.4545V39.1818H44.9545C51.7273 39.1818 57.5227 40.5795 62.3409 43.375C67.1591 46.1477 70.8523 50.1364 73.4205 55.3409C75.9886 60.5227 77.2727 66.7273 77.2727 73.9545C77.2727 81.2273 75.9773 87.4886 73.3864 92.7386C70.7955 97.9659 67.0227 101.989 62.0682 104.807C57.1136 107.602 51.0909 109 44 109ZM30.9091 101.5H43.4545C49.2273 101.5 54.0114 100.386 57.8068 98.1591C61.6023 95.9318 64.4318 92.7614 66.2955 88.6477C68.1591 84.5341 69.0909 79.6364 69.0909 73.9545C69.0909 68.3182 68.1705 63.4659 66.3295 59.3977C64.4886 55.3068 61.7386 52.1705 58.0795 49.9886C54.4205 47.7841 49.8636 46.6818 44.4091 46.6818H30.9091V101.5ZM112.318 110.091C107.273 110.091 102.92 108.977 99.2614 106.75C95.625 104.5 92.8182 101.364 90.8409 97.3409C88.8864 93.2955 87.9091 88.5909 87.9091 83.2273C87.9091 77.8636 88.8864 73.1364 90.8409 69.0455C92.8182 64.9318 95.5682 61.7273 99.0909 59.4318C102.636 57.1136 106.773 55.9545 111.5 55.9545C114.227 55.9545 116.92 56.4091 119.58 57.3182C122.239 58.2273 124.659 59.7045 126.841 61.75C129.023 63.7727 130.761 66.4545 132.057 69.7955C133.352 73.1364 134 77.25 134 82.1364V85.5455H93.6364V78.5909H125.818C125.818 75.6364 125.227 73 124.045 70.6818C122.886 68.3636 121.227 66.5341 119.068 65.1932C116.932 63.8523 114.409 63.1818 111.5 63.1818C108.295 63.1818 105.523 63.9773 103.182 65.5682C100.864 67.1364 99.0795 69.1818 97.8295 71.7045C96.5795 74.2273 95.9545 76.9318 95.9545 79.8182V84.4545C95.9545 88.4091 96.6364 91.7614 98 94.5114C99.3864 97.2386 101.307 99.3182 103.761 100.75C106.216 102.159 109.068 102.864 112.318 102.864C114.432 102.864 116.341 102.568 118.045 101.977C119.773 101.364 121.261 100.455 122.511 99.25C123.761 98.0227 124.727 96.5 125.409 94.6818L133.182 96.8636C132.364 99.5 130.989 101.818 129.057 103.818C127.125 105.795 124.739 107.341 121.898 108.455C119.057 109.545 115.864 110.091 112.318 110.091ZM146.239 109V56.6364H154.011V64.8182H154.693C155.784 62.0227 157.545 59.8523 159.977 58.3068C162.409 56.7386 165.33 55.9545 168.739 55.9545C172.193 55.9545 175.068 56.7386 177.364 58.3068C179.682 59.8523 181.489 62.0227 182.784 64.8182H183.33C184.67 62.1136 186.682 59.9659 189.364 58.375C192.045 56.7614 195.261 55.9545 199.011 55.9545C203.693 55.9545 207.523 57.4205 210.5 60.3523C213.477 63.2614 214.966 67.7955 214.966 73.9545V109H206.92V73.9545C206.92 70.0909 205.864 67.3295 203.75 65.6705C201.636 64.0114 199.148 63.1818 196.284 63.1818C192.602 63.1818 189.75 64.2955 187.727 66.5227C185.705 68.7273 184.693 71.5227 184.693 74.9091V109H176.511V73.1364C176.511 70.1591 175.545 67.7614 173.614 65.9432C171.682 64.1023 169.193 63.1818 166.148 63.1818C164.057 63.1818 162.102 63.7386 160.284 64.8523C158.489 65.9659 157.034 67.5114 155.92 69.4886C154.83 71.4432 154.284 73.7045 154.284 76.2727V109H146.239ZM250.949 110.091C246.222 110.091 242.074 108.966 238.506 106.716C234.96 104.466 232.188 101.318 230.188 97.2727C228.21 93.2273 227.222 88.5 227.222 83.0909C227.222 77.6364 228.21 72.875 230.188 68.8068C232.188 64.7386 234.96 61.5795 238.506 59.3295C242.074 57.0795 246.222 55.9545 250.949 55.9545C255.676 55.9545 259.813 57.0795 263.358 59.3295C266.926 61.5795 269.699 64.7386 271.676 68.8068C273.676 72.875 274.676 77.6364 274.676 83.0909C274.676 88.5 273.676 93.2273 271.676 97.2727C269.699 101.318 266.926 104.466 263.358 106.716C259.813 108.966 255.676 110.091 250.949 110.091ZM250.949 102.864C254.54 102.864 257.494 101.943 259.812 100.102C262.131 98.2614 263.847 95.8409 264.96 92.8409C266.074 89.8409 266.631 86.5909 266.631 83.0909C266.631 79.5909 266.074 76.3295 264.96 73.3068C263.847 70.2841 262.131 67.8409 259.812 65.9773C257.494 64.1136 254.54 63.1818 250.949 63.1818C247.358 63.1818 244.403 64.1136 242.085 65.9773C239.767 67.8409 238.051 70.2841 236.938 73.3068C235.824 76.3295 235.267 79.5909 235.267 83.0909C235.267 86.5909 235.824 89.8409 236.938 92.8409C238.051 95.8409 239.767 98.2614 242.085 100.102C244.403 101.943 247.358 102.864 250.949 102.864ZM325.821 109L309.866 56.6364H318.321L329.639 96.7273H330.185L341.366 56.6364H349.957L361.003 96.5909H361.548L372.866 56.6364H381.321L365.366 109H357.457L346.003 68.7727H345.185L333.73 109H325.821ZM412.131 110.091C407.085 110.091 402.733 108.977 399.074 106.75C395.438 104.5 392.631 101.364 390.653 97.3409C388.699 93.2955 387.722 88.5909 387.722 83.2273C387.722 77.8636 388.699 73.1364 390.653 69.0455C392.631 64.9318 395.381 61.7273 398.903 59.4318C402.449 57.1136 406.585 55.9545 411.312 55.9545C414.04 55.9545 416.733 56.4091 419.392 57.3182C422.051 58.2273 424.472 59.7045 426.653 61.75C428.835 63.7727 430.574 66.4545 431.869 69.7955C433.165 73.1364 433.812 77.25 433.812 82.1364V85.5455H393.449V78.5909H425.631C425.631 75.6364 425.04 73 423.858 70.6818C422.699 68.3636 421.04 66.5341 418.881 65.1932C416.744 63.8523 414.222 63.1818 411.312 63.1818C408.108 63.1818 405.335 63.9773 402.994 65.5682C400.676 67.1364 398.892 69.1818 397.642 71.7045C396.392 74.2273 395.767 76.9318 395.767 79.8182V84.4545C395.767 88.4091 396.449 91.7614 397.812 94.5114C399.199 97.2386 401.119 99.3182 403.574 100.75C406.028 102.159 408.881 102.864 412.131 102.864C414.244 102.864 416.153 102.568 417.858 101.977C419.585 101.364 421.074 100.455 422.324 99.25C423.574 98.0227 424.54 96.5 425.222 94.6818L432.994 96.8636C432.176 99.5 430.801 101.818 428.869 103.818C426.938 105.795 424.551 107.341 421.71 108.455C418.869 109.545 415.676 110.091 412.131 110.091ZM447.142 109V39.1818H455.188V64.9545H455.869C456.46 64.0455 457.278 62.8864 458.324 61.4773C459.392 60.0455 460.915 58.7727 462.892 57.6591C464.892 56.5227 467.597 55.9545 471.006 55.9545C475.415 55.9545 479.301 57.0568 482.665 59.2614C486.028 61.4659 488.653 64.5909 490.54 68.6364C492.426 72.6818 493.369 77.4545 493.369 82.9545C493.369 88.5 492.426 93.3068 490.54 97.375C488.653 101.42 486.04 104.557 482.699 106.784C479.358 108.989 475.506 110.091 471.142 110.091C467.778 110.091 465.085 109.534 463.062 108.42C461.04 107.284 459.483 106 458.392 104.568C457.301 103.114 456.46 101.909 455.869 100.955H454.915V109H447.142ZM455.051 82.8182C455.051 86.7727 455.631 90.2614 456.79 93.2841C457.949 96.2841 459.642 98.6364 461.869 100.341C464.097 102.023 466.824 102.864 470.051 102.864C473.415 102.864 476.222 101.977 478.472 100.205C480.744 98.4091 482.449 96 483.585 92.9773C484.744 89.9318 485.324 86.5455 485.324 82.8182C485.324 79.1364 484.756 75.8182 483.619 72.8636C482.506 69.8864 480.813 67.5341 478.54 65.8068C476.29 64.0568 473.46 63.1818 470.051 63.1818C466.778 63.1818 464.028 64.0114 461.801 65.6705C459.574 67.3068 457.892 69.6023 456.756 72.5568C455.619 75.4886 455.051 78.9091 455.051 82.8182ZM542.767 68.3636L535.54 70.4091C535.085 69.2045 534.415 68.0341 533.528 66.8977C532.665 65.7386 531.483 64.7841 529.983 64.0341C528.483 63.2841 526.562 62.9091 524.222 62.9091C521.017 62.9091 518.347 63.6477 516.21 65.125C514.097 66.5795 513.04 68.4318 513.04 70.6818C513.04 72.6818 513.767 74.2614 515.222 75.4205C516.676 76.5795 518.949 77.5455 522.04 78.3182L529.812 80.2273C534.494 81.3636 537.983 83.1023 540.278 85.4432C542.574 87.7614 543.722 90.75 543.722 94.4091C543.722 97.4091 542.858 100.091 541.131 102.455C539.426 104.818 537.04 106.682 533.972 108.045C530.903 109.409 527.335 110.091 523.267 110.091C517.926 110.091 513.506 108.932 510.006 106.614C506.506 104.295 504.29 100.909 503.358 96.4545L510.994 94.5455C511.722 97.3636 513.097 99.4773 515.119 100.886C517.165 102.295 519.835 103 523.131 103C526.881 103 529.858 102.205 532.062 100.614C534.29 99 535.403 97.0682 535.403 94.8182C535.403 93 534.767 91.4773 533.494 90.25C532.222 89 530.267 88.0682 527.631 87.4545L518.903 85.4091C514.108 84.2727 510.585 82.5114 508.335 80.125C506.108 77.7159 504.994 74.7045 504.994 71.0909C504.994 68.1364 505.824 65.5227 507.483 63.25C509.165 60.9773 511.449 59.1932 514.335 57.8977C517.244 56.6023 520.54 55.9545 524.222 55.9545C529.403 55.9545 533.472 57.0909 536.426 59.3636C539.403 61.6364 541.517 64.6364 542.767 68.3636ZM555.832 109V56.6364H563.878V109H555.832ZM559.923 47.9091C558.355 47.9091 557.003 47.375 555.866 46.3068C554.753 45.2386 554.196 43.9545 554.196 42.4545C554.196 40.9545 554.753 39.6705 555.866 38.6023C557.003 37.5341 558.355 37 559.923 37C561.491 37 562.832 37.5341 563.946 38.6023C565.082 39.6705 565.651 40.9545 565.651 42.4545C565.651 43.9545 565.082 45.2386 563.946 46.3068C562.832 47.375 561.491 47.9091 559.923 47.9091ZM601.386 56.6364V63.4545H574.25V56.6364H601.386ZM582.159 44.0909H590.205V94C590.205 96.2727 590.534 97.9773 591.193 99.1136C591.875 100.227 592.739 100.977 593.784 101.364C594.852 101.727 595.977 101.909 597.159 101.909C598.045 101.909 598.773 101.864 599.341 101.773C599.909 101.659 600.364 101.568 600.705 101.5L602.341 108.727C601.795 108.932 601.034 109.136 600.057 109.341C599.08 109.568 597.841 109.682 596.341 109.682C594.068 109.682 591.841 109.193 589.659 108.216C587.5 107.239 585.705 105.75 584.273 103.75C582.864 101.75 582.159 99.2273 582.159 96.1818V44.0909ZM634.881 110.091C629.835 110.091 625.483 108.977 621.824 106.75C618.188 104.5 615.381 101.364 613.403 97.3409C611.449 93.2955 610.472 88.5909 610.472 83.2273C610.472 77.8636 611.449 73.1364 613.403 69.0455C615.381 64.9318 618.131 61.7273 621.653 59.4318C625.199 57.1136 629.335 55.9545 634.062 55.9545C636.79 55.9545 639.483 56.4091 642.142 57.3182C644.801 58.2273 647.222 59.7045 649.403 61.75C651.585 63.7727 653.324 66.4545 654.619 69.7955C655.915 73.1364 656.562 77.25 656.562 82.1364V85.5455H616.199V78.5909H648.381C648.381 75.6364 647.79 73 646.608 70.6818C645.449 68.3636 643.79 66.5341 641.631 65.1932C639.494 63.8523 636.972 63.1818 634.062 63.1818C630.858 63.1818 628.085 63.9773 625.744 65.5682C623.426 67.1364 621.642 69.1818 620.392 71.7045C619.142 74.2273 618.517 76.9318 618.517 79.8182V84.4545C618.517 88.4091 619.199 91.7614 620.562 94.5114C621.949 97.2386 623.869 99.3182 626.324 100.75C628.778 102.159 631.631 102.864 634.881 102.864C636.994 102.864 638.903 102.568 640.608 101.977C642.335 101.364 643.824 100.455 645.074 99.25C646.324 98.0227 647.29 96.5 647.972 94.6818L655.744 96.8636C654.926 99.5 653.551 101.818 651.619 103.818C649.688 105.795 647.301 107.341 644.46 108.455C641.619 109.545 638.426 110.091 634.881 110.091Z" fill="white"/>
<path d="M889.013 79.7969V88H886.918V69.8182H889.013V76.4943H889.19C889.51 75.79 889.989 75.2307 890.629 74.8164C891.274 74.3962 892.132 74.1861 893.203 74.1861C894.132 74.1861 894.946 74.3725 895.645 74.7454C896.343 75.1123 896.884 75.6776 897.269 76.4411C897.66 77.1986 897.855 78.1634 897.855 79.3352V88H895.76V79.4773C895.76 78.3942 895.479 77.5567 894.917 76.9648C894.36 76.3671 893.588 76.0682 892.599 76.0682C891.913 76.0682 891.297 76.2132 890.753 76.5032C890.214 76.7932 889.788 77.2164 889.474 77.7727C889.167 78.3291 889.013 79.0038 889.013 79.7969ZM907.228 88.2841C905.997 88.2841 904.917 87.9911 903.987 87.4052C903.064 86.8192 902.342 85.9995 901.821 84.946C901.306 83.8925 901.049 82.6615 901.049 81.2528C901.049 79.8324 901.306 78.5924 901.821 77.533C902.342 76.4736 903.064 75.6509 903.987 75.065C904.917 74.479 905.997 74.1861 907.228 74.1861C908.459 74.1861 909.536 74.479 910.459 75.065C911.389 75.6509 912.111 76.4736 912.626 77.533C913.146 78.5924 913.407 79.8324 913.407 81.2528C913.407 82.6615 913.146 83.8925 912.626 84.946C912.111 85.9995 911.389 86.8192 910.459 87.4052C909.536 87.9911 908.459 88.2841 907.228 88.2841ZM907.228 86.402C908.163 86.402 908.932 86.1623 909.536 85.6829C910.14 85.2035 910.587 84.5732 910.877 83.7919C911.167 83.0107 911.312 82.1643 911.312 81.2528C911.312 80.3414 911.167 79.4921 910.877 78.7049C910.587 77.9177 910.14 77.2815 909.536 76.7962C908.932 76.3108 908.163 76.0682 907.228 76.0682C906.293 76.0682 905.523 76.3108 904.92 76.7962C904.316 77.2815 903.869 77.9177 903.579 78.7049C903.289 79.4921 903.144 80.3414 903.144 81.2528C903.144 82.1643 903.289 83.0107 903.579 83.7919C903.869 84.5732 904.316 85.2035 904.92 85.6829C905.523 86.1623 906.293 86.402 907.228 86.402ZM916.605 88V74.3636H918.629V76.4943H918.807C919.091 75.7663 919.55 75.2011 920.183 74.7987C920.816 74.3903 921.577 74.1861 922.464 74.1861C923.364 74.1861 924.113 74.3903 924.711 74.7987C925.314 75.2011 925.785 75.7663 926.122 76.4943H926.264C926.613 75.79 927.137 75.2307 927.836 74.8164C928.534 74.3962 929.371 74.1861 930.348 74.1861C931.567 74.1861 932.565 74.5678 933.34 75.3313C934.115 76.0889 934.503 77.2696 934.503 78.8736V88H932.408V78.8736C932.408 77.8674 932.132 77.1483 931.582 76.7163C931.032 76.2842 930.384 76.0682 929.638 76.0682C928.679 76.0682 927.936 76.3582 927.409 76.9382C926.883 77.5123 926.619 78.2403 926.619 79.1222V88H924.489V78.6605C924.489 77.8852 924.237 77.2608 923.734 76.7873C923.231 76.3079 922.583 76.0682 921.79 76.0682C921.245 76.0682 920.736 76.2132 920.263 76.5032C919.795 76.7932 919.416 77.1957 919.126 77.7106C918.842 78.2196 918.7 78.8085 918.7 79.4773V88H916.605ZM944.051 88.2841C942.737 88.2841 941.604 87.9941 940.651 87.4141C939.704 86.8281 938.973 86.0114 938.458 84.9638C937.949 83.9103 937.694 82.6851 937.694 81.2884C937.694 79.8916 937.949 78.6605 938.458 77.5952C938.973 76.5239 939.689 75.6894 940.606 75.0916C941.53 74.4879 942.607 74.1861 943.838 74.1861C944.548 74.1861 945.249 74.3045 945.942 74.5412C946.634 74.7779 947.265 75.1626 947.833 75.6953C948.401 76.2221 948.854 76.9205 949.191 77.7905C949.529 78.6605 949.697 79.7318 949.697 81.0043V81.892H939.186V80.081H947.567C947.567 79.3116 947.413 78.625 947.105 78.0213C946.803 77.4176 946.371 76.9412 945.809 76.592C945.252 76.2428 944.595 76.0682 943.838 76.0682C943.003 76.0682 942.281 76.2753 941.672 76.6896C941.068 77.098 940.603 77.6307 940.278 78.2876C939.952 78.9446 939.79 79.6489 939.79 80.4006V81.608C939.79 82.6378 939.967 83.5108 940.322 84.2269C940.683 84.9371 941.183 85.4787 941.823 85.8516C942.462 86.2185 943.205 86.402 944.051 86.402C944.601 86.402 945.099 86.325 945.542 86.1712C945.992 86.0114 946.38 85.7746 946.705 85.4609C947.031 85.1413 947.282 84.7448 947.46 84.2713L949.484 84.8395C949.271 85.526 948.913 86.1297 948.41 86.6506C947.907 87.1655 947.285 87.5679 946.546 87.858C945.806 88.142 944.974 88.2841 944.051 88.2841Z" fill="white"/>
<path d="M1318.58 77.4176L1316.69 77.9503C1316.58 77.6366 1316.4 77.3318 1316.17 77.0359C1315.95 76.734 1315.64 76.4854 1315.25 76.2901C1314.86 76.0948 1314.36 75.9972 1313.75 75.9972C1312.91 75.9972 1312.22 76.1895 1311.66 76.5742C1311.11 76.953 1310.84 77.4354 1310.84 78.0213C1310.84 78.5421 1311.02 78.9535 1311.4 79.2553C1311.78 79.5572 1312.37 79.8087 1313.18 80.0099L1315.2 80.5071C1316.42 80.803 1317.33 81.2558 1317.93 81.8654C1318.53 82.4691 1318.83 83.2474 1318.83 84.2003C1318.83 84.9815 1318.6 85.6799 1318.15 86.2955C1317.71 86.911 1317.09 87.3963 1316.29 87.7514C1315.49 88.1065 1314.56 88.2841 1313.5 88.2841C1312.11 88.2841 1310.96 87.9822 1310.05 87.3786C1309.13 86.7749 1308.56 85.893 1308.31 84.733L1310.3 84.2358C1310.49 84.9697 1310.85 85.5201 1311.38 85.8871C1311.91 86.254 1312.6 86.4375 1313.46 86.4375C1314.44 86.4375 1315.21 86.2304 1315.79 85.8161C1316.37 85.3958 1316.66 84.8928 1316.66 84.3068C1316.66 83.8333 1316.49 83.4368 1316.16 83.1172C1315.83 82.7917 1315.32 82.549 1314.63 82.3892L1312.36 81.8565C1311.11 81.5606 1310.2 81.1019 1309.61 80.4805C1309.03 79.8531 1308.74 79.0689 1308.74 78.1278C1308.74 77.3584 1308.96 76.6778 1309.39 76.0859C1309.83 75.4941 1310.42 75.0295 1311.17 74.6921C1311.93 74.3548 1312.79 74.1861 1313.75 74.1861C1315.1 74.1861 1316.16 74.482 1316.93 75.0739C1317.7 75.6657 1318.25 76.447 1318.58 77.4176ZM1327.91 74.3636V76.1392H1320.84V74.3636H1327.91ZM1322.9 71.0966H1325V84.0938C1325 84.6856 1325.08 85.1295 1325.26 85.4254C1325.43 85.7154 1325.66 85.9107 1325.93 86.0114C1326.21 86.1061 1326.5 86.1534 1326.81 86.1534C1327.04 86.1534 1327.23 86.1416 1327.38 86.1179C1327.52 86.0883 1327.64 86.0646 1327.73 86.0469L1328.16 87.929C1328.02 87.9822 1327.82 88.0355 1327.56 88.0888C1327.31 88.148 1326.99 88.1776 1326.6 88.1776C1326 88.1776 1325.42 88.0503 1324.86 87.7958C1324.29 87.5413 1323.83 87.1536 1323.45 86.6328C1323.09 86.112 1322.9 85.455 1322.9 84.6619V71.0966ZM1336.45 88.2841C1335.22 88.2841 1334.14 87.9911 1333.21 87.4052C1332.29 86.8192 1331.57 85.9995 1331.05 84.946C1330.53 83.8925 1330.28 82.6615 1330.28 81.2528C1330.28 79.8324 1330.53 78.5924 1331.05 77.533C1331.57 76.4736 1332.29 75.6509 1333.21 75.065C1334.14 74.479 1335.22 74.1861 1336.45 74.1861C1337.69 74.1861 1338.76 74.479 1339.69 75.065C1340.62 75.6509 1341.34 76.4736 1341.85 77.533C1342.37 78.5924 1342.63 79.8324 1342.63 81.2528C1342.63 82.6615 1342.37 83.8925 1341.85 84.946C1341.34 85.9995 1340.62 86.8192 1339.69 87.4052C1338.76 87.9911 1337.69 88.2841 1336.45 88.2841ZM1336.45 86.402C1337.39 86.402 1338.16 86.1623 1338.76 85.6829C1339.37 85.2035 1339.81 84.5732 1340.1 83.7919C1340.39 83.0107 1340.54 82.1643 1340.54 81.2528C1340.54 80.3414 1340.39 79.4921 1340.1 78.7049C1339.81 77.9177 1339.37 77.2815 1338.76 76.7962C1338.16 76.3108 1337.39 76.0682 1336.45 76.0682C1335.52 76.0682 1334.75 76.3108 1334.15 76.7962C1333.54 77.2815 1333.1 77.9177 1332.81 78.7049C1332.52 79.4921 1332.37 80.3414 1332.37 81.2528C1332.37 82.1643 1332.52 83.0107 1332.81 83.7919C1333.1 84.5732 1333.54 85.2035 1334.15 85.6829C1334.75 86.1623 1335.52 86.402 1336.45 86.402ZM1345.83 88V74.3636H1347.86V76.4233H1348C1348.25 75.7486 1348.7 75.2011 1349.35 74.7809C1350 74.3607 1350.73 74.1506 1351.55 74.1506C1351.7 74.1506 1351.9 74.1535 1352.13 74.1594C1352.36 74.1654 1352.53 74.1742 1352.65 74.1861V76.3168C1352.58 76.299 1352.42 76.2724 1352.16 76.2369C1351.91 76.1954 1351.65 76.1747 1351.37 76.1747C1350.71 76.1747 1350.12 76.3138 1349.6 76.592C1349.08 76.8642 1348.67 77.243 1348.37 77.7283C1348.07 78.2077 1347.93 78.7552 1347.93 79.3707V88H1345.83ZM1355.13 88V74.3636H1357.23V88H1355.13ZM1356.2 72.0909C1355.79 72.0909 1355.44 71.9518 1355.14 71.6737C1354.85 71.3955 1354.71 71.0611 1354.71 70.6705C1354.71 70.2798 1354.85 69.9454 1355.14 69.6673C1355.44 69.3891 1355.79 69.25 1356.2 69.25C1356.61 69.25 1356.96 69.3891 1357.25 69.6673C1357.54 69.9454 1357.69 70.2798 1357.69 70.6705C1357.69 71.0611 1357.54 71.3955 1357.25 71.6737C1356.96 71.9518 1356.61 72.0909 1356.2 72.0909ZM1366.78 88.2841C1365.47 88.2841 1364.34 87.9941 1363.38 87.4141C1362.44 86.8281 1361.71 86.0114 1361.19 84.9638C1360.68 83.9103 1360.43 82.6851 1360.43 81.2884C1360.43 79.8916 1360.68 78.6605 1361.19 77.5952C1361.71 76.5239 1362.42 75.6894 1363.34 75.0916C1364.26 74.4879 1365.34 74.1861 1366.57 74.1861C1367.28 74.1861 1367.98 74.3045 1368.67 74.5412C1369.37 74.7779 1370 75.1626 1370.57 75.6953C1371.13 76.2221 1371.59 76.9205 1371.92 77.7905C1372.26 78.6605 1372.43 79.7318 1372.43 81.0043V81.892H1361.92V80.081H1370.3C1370.3 79.3116 1370.15 78.625 1369.84 78.0213C1369.54 77.4176 1369.1 76.9412 1368.54 76.592C1367.98 76.2428 1367.33 76.0682 1366.57 76.0682C1365.74 76.0682 1365.01 76.2753 1364.4 76.6896C1363.8 77.098 1363.34 77.6307 1363.01 78.2876C1362.68 78.9446 1362.52 79.6489 1362.52 80.4006V81.608C1362.52 82.6378 1362.7 83.5108 1363.05 84.2269C1363.42 84.9371 1363.92 85.4787 1364.56 85.8516C1365.19 86.2185 1365.94 86.402 1366.78 86.402C1367.33 86.402 1367.83 86.325 1368.27 86.1712C1368.72 86.0114 1369.11 85.7746 1369.44 85.4609C1369.76 85.1413 1370.01 84.7448 1370.19 84.2713L1372.22 84.8395C1372 85.526 1371.65 86.1297 1371.14 86.6506C1370.64 87.1655 1370.02 87.5679 1369.28 87.858C1368.54 88.142 1367.71 88.2841 1366.78 88.2841ZM1385.28 77.4176L1383.39 77.9503C1383.28 77.6366 1383.1 77.3318 1382.87 77.0359C1382.65 76.734 1382.34 76.4854 1381.95 76.2901C1381.56 76.0948 1381.06 75.9972 1380.45 75.9972C1379.61 75.9972 1378.92 76.1895 1378.36 76.5742C1377.81 76.953 1377.53 77.4354 1377.53 78.0213C1377.53 78.5421 1377.72 78.9535 1378.1 79.2553C1378.48 79.5572 1379.07 79.8087 1379.88 80.0099L1381.9 80.5071C1383.12 80.803 1384.03 81.2558 1384.63 81.8654C1385.23 82.4691 1385.52 83.2474 1385.52 84.2003C1385.52 84.9815 1385.3 85.6799 1384.85 86.2955C1384.41 86.911 1383.78 87.3963 1382.99 87.7514C1382.19 88.1065 1381.26 88.2841 1380.2 88.2841C1378.81 88.2841 1377.66 87.9822 1376.74 87.3786C1375.83 86.7749 1375.26 85.893 1375.01 84.733L1377 84.2358C1377.19 84.9697 1377.55 85.5201 1378.08 85.8871C1378.61 86.254 1379.3 86.4375 1380.16 86.4375C1381.14 86.4375 1381.91 86.2304 1382.49 85.8161C1383.07 85.3958 1383.36 84.8928 1383.36 84.3068C1383.36 83.8333 1383.19 83.4368 1382.86 83.1172C1382.53 82.7917 1382.02 82.549 1381.33 82.3892L1379.06 81.8565C1377.81 81.5606 1376.9 81.1019 1376.31 80.4805C1375.73 79.8531 1375.44 79.0689 1375.44 78.1278C1375.44 77.3584 1375.66 76.6778 1376.09 76.0859C1376.53 75.4941 1377.12 75.0295 1377.87 74.6921C1378.63 74.3548 1379.49 74.1861 1380.45 74.1861C1381.8 74.1861 1382.86 74.482 1383.62 75.0739C1384.4 75.6657 1384.95 76.447 1385.28 77.4176Z" fill="white"/>
<path d="M167.04 344.486C177.914 323.833 207.488 323.833 218.362 344.486L246.53 397.987C256.697 417.298 242.694 440.497 220.869 440.497H164.533C142.708 440.497 128.705 417.298 138.872 397.987L167.04 344.486Z" fill="#342F2F"/>
<path d="M178.392 206.965C192.368 199.158 209.44 199.364 223.223 207.506L366.276 292.005C405.96 315.446 388.934 376.304 342.847 375.748L54.7437 372.271C8.65679 371.714 -6.89632 310.464 33.3421 287.987L178.392 206.965Z" fill="#DB2D2D"/>
<path d="M690.813 445.974C707.774 413.759 753.905 413.759 770.867 445.974L814.804 529.428C830.664 559.551 808.821 595.737 774.778 595.737H686.902C652.859 595.737 631.015 559.551 646.875 529.428L690.813 445.974Z" fill="#342F2F"/>
<path d="M708.52 231.463C730.321 219.286 756.949 219.607 778.45 232.307L1001.59 364.113C1063.49 400.677 1036.93 495.605 965.044 494.738L515.647 489.314C443.758 488.447 419.498 392.905 482.264 357.845L708.52 231.463Z" fill="#DB2D2D"/>
<line x1="-26.4923" y1="575.32" x2="1050.51" y2="854.32" stroke="#173A0D" stroke-width="20"/>
<path d="M1292.81 664.953C1319.5 660.897 1343.73 681.088 1344.55 708.071L1346.09 758.597C1346.4 768.545 1349.99 778.112 1356.31 785.801L1377.9 812.064C1401.63 840.941 1381.86 884.491 1344.49 885.618L1337.44 885.831C1323.32 886.257 1310.22 893.29 1302.06 904.823L1292.32 918.592C1274.22 944.172 1236.18 943.891 1218.46 918.045L1183.8 867.471C1179.1 860.618 1172.6 855.199 1165.01 851.815L1109.02 826.838C1080.4 814.074 1073.26 776.701 1095.16 754.291L1106.95 742.228C1116.82 732.124 1121.38 717.969 1119.25 704.003L1118.19 697.027C1112.56 660.073 1151.83 632.765 1184.51 650.906L1214.24 667.405C1222.94 672.235 1233 674.044 1242.84 672.548L1292.81 664.953Z" fill="#8DB740"/>
<line x1="1134.37" y1="657.664" x2="1413.37" y2="965.664" stroke="#3D3535"/>
<line x1="1412.6" y1="965.706" x2="1420.6" y2="954.706" stroke="black"/>
<path d="M84.8125 757H79.2017V738.818H85.0611C86.8248 738.818 88.334 739.182 89.5888 739.91C90.8435 740.632 91.8053 741.671 92.4741 743.026C93.1429 744.376 93.4773 745.991 93.4773 747.874C93.4773 749.768 93.1399 751.398 92.4652 752.765C91.7905 754.127 90.808 755.174 89.5178 755.908C88.2275 756.636 86.6591 757 84.8125 757ZM81.4034 755.047H84.6705C86.1738 755.047 87.4196 754.757 88.408 754.177C89.3964 753.597 90.1333 752.771 90.6186 751.7C91.1039 750.629 91.3466 749.353 91.3466 747.874C91.3466 746.406 91.1069 745.142 90.6275 744.083C90.1481 743.017 89.4319 742.201 88.479 741.632C87.5262 741.058 86.3395 740.771 84.919 740.771H81.4034V755.047ZM97.1705 757V738.818H108.143V740.771H99.3722V746.915H107.575V748.868H99.3722V755.047H108.286V757H97.1705ZM111.118 740.771V738.818H124.754V740.771H119.037V757H116.835V740.771H111.118ZM126.774 757H124.465L131.142 738.818H133.414L140.09 757H137.782L132.349 741.695H132.207L126.774 757ZM127.626 749.898H136.93V751.851H127.626V749.898ZM145.124 738.818V757H142.922V738.818H145.124ZM149.539 757V738.818H151.74V755.047H160.192V757H149.539ZM173.544 743.364C173.438 742.464 173.006 741.766 172.248 741.268C171.491 740.771 170.561 740.523 169.46 740.523C168.656 740.523 167.951 740.653 167.348 740.913C166.75 741.174 166.282 741.532 165.945 741.988C165.613 742.443 165.448 742.961 165.448 743.541C165.448 744.027 165.563 744.444 165.794 744.793C166.031 745.136 166.333 745.423 166.699 745.654C167.066 745.879 167.451 746.065 167.854 746.213C168.256 746.355 168.626 746.471 168.963 746.56L170.81 747.057C171.283 747.181 171.81 747.353 172.39 747.572C172.976 747.791 173.535 748.09 174.068 748.468C174.607 748.841 175.051 749.321 175.4 749.907C175.749 750.493 175.924 751.212 175.924 752.064C175.924 753.046 175.666 753.934 175.151 754.727C174.642 755.52 173.896 756.151 172.914 756.618C171.937 757.086 170.751 757.32 169.354 757.32C168.052 757.32 166.924 757.109 165.972 756.689C165.025 756.269 164.279 755.683 163.734 754.931C163.196 754.18 162.891 753.307 162.82 752.312H165.093C165.152 752.999 165.383 753.567 165.785 754.017C166.193 754.461 166.708 754.792 167.33 755.011C167.957 755.224 168.632 755.331 169.354 755.331C170.194 755.331 170.949 755.195 171.618 754.923C172.287 754.644 172.816 754.26 173.207 753.768C173.598 753.271 173.793 752.691 173.793 752.028C173.793 751.425 173.624 750.933 173.287 750.555C172.949 750.176 172.506 749.868 171.955 749.631C171.405 749.395 170.81 749.187 170.171 749.01L167.934 748.371C166.513 747.962 165.389 747.379 164.56 746.622C163.731 745.864 163.317 744.873 163.317 743.648C163.317 742.63 163.592 741.742 164.143 740.984C164.699 740.221 165.445 739.629 166.38 739.209C167.321 738.783 168.371 738.57 169.532 738.57C170.703 738.57 171.745 738.78 172.657 739.2C173.568 739.614 174.29 740.182 174.823 740.904C175.361 741.627 175.645 742.446 175.675 743.364H173.544Z" fill="#971919"/>
<path opacity="0.8" d="M79.1222 797H77.4602L82.267 783.909H83.9034L88.7102 797H87.0483L83.1364 785.98H83.0341L79.1222 797ZM79.7358 791.886H86.4347V793.293H79.7358V791.886ZM94.7891 797H90.7493V783.909H94.968C96.2379 783.909 97.3246 784.171 98.228 784.695C99.1314 785.215 99.8239 785.963 100.305 786.939C100.787 787.911 101.028 789.074 101.028 790.429C101.028 791.793 100.785 792.967 100.299 793.951C99.8132 794.931 99.1058 795.685 98.1768 796.214C97.2479 796.738 96.1186 797 94.7891 797ZM92.3345 795.594H94.6868C95.7692 795.594 96.6662 795.385 97.3778 794.967C98.0895 794.55 98.62 793.955 98.9695 793.184C99.3189 792.413 99.4936 791.494 99.4936 790.429C99.4936 789.372 99.321 788.462 98.9759 787.7C98.6307 786.933 98.1151 786.344 97.429 785.935C96.7429 785.522 95.8885 785.315 94.8658 785.315H92.3345V795.594ZM107.727 797H103.687V783.909H107.906C109.175 783.909 110.262 784.171 111.165 784.695C112.069 785.215 112.761 785.963 113.243 786.939C113.724 787.911 113.965 789.074 113.965 790.429C113.965 791.793 113.722 792.967 113.237 793.951C112.751 794.931 112.043 795.685 111.114 796.214C110.185 796.738 109.056 797 107.727 797ZM105.272 795.594H107.624C108.707 795.594 109.604 795.385 110.315 794.967C111.027 794.55 111.558 793.955 111.907 793.184C112.256 792.413 112.431 791.494 112.431 790.429C112.431 789.372 112.259 788.462 111.913 787.7C111.568 786.933 111.053 786.344 110.366 785.935C109.68 785.522 108.826 785.315 107.803 785.315H105.272V795.594ZM116.624 797V783.909H121.048C122.07 783.909 122.91 784.084 123.566 784.433C124.222 784.778 124.708 785.254 125.023 785.859C125.339 786.464 125.496 787.152 125.496 787.923C125.496 788.695 125.339 789.379 125.023 789.975C124.708 790.572 124.224 791.04 123.572 791.381C122.92 791.718 122.087 791.886 121.073 791.886H117.494V790.455H121.022C121.721 790.455 122.283 790.352 122.71 790.148C123.14 789.943 123.451 789.653 123.643 789.278C123.839 788.899 123.937 788.447 123.937 787.923C123.937 787.399 123.839 786.941 123.643 786.549C123.447 786.157 123.134 785.854 122.703 785.641C122.273 785.424 121.704 785.315 120.996 785.315H118.21V797H116.624ZM122.786 791.119L126.008 797H124.167L120.996 791.119H122.786ZM128.138 797V783.909H136.039V785.315H129.723V789.739H135.629V791.145H129.723V795.594H136.141V797H128.138ZM146.055 787.182C145.978 786.534 145.667 786.031 145.122 785.673C144.576 785.315 143.907 785.136 143.115 785.136C142.535 785.136 142.028 785.23 141.593 785.418C141.163 785.605 140.826 785.863 140.583 786.191C140.345 786.519 140.225 786.892 140.225 787.31C140.225 787.659 140.308 787.96 140.475 788.211C140.645 788.458 140.862 788.665 141.127 788.831C141.391 788.993 141.668 789.127 141.958 789.234C142.247 789.336 142.514 789.419 142.757 789.483L144.086 789.841C144.427 789.93 144.806 790.054 145.224 790.212C145.646 790.369 146.048 790.585 146.432 790.857C146.82 791.126 147.139 791.471 147.391 791.893C147.642 792.315 147.768 792.832 147.768 793.446C147.768 794.153 147.583 794.793 147.212 795.364C146.845 795.935 146.308 796.388 145.601 796.725C144.898 797.062 144.044 797.23 143.038 797.23C142.1 797.23 141.289 797.079 140.602 796.776C139.921 796.474 139.384 796.052 138.992 795.511C138.604 794.969 138.384 794.341 138.333 793.625H139.97C140.012 794.119 140.178 794.528 140.468 794.852C140.762 795.172 141.133 795.411 141.58 795.568C142.032 795.722 142.518 795.798 143.038 795.798C143.643 795.798 144.186 795.7 144.668 795.504C145.149 795.304 145.531 795.027 145.812 794.673C146.093 794.315 146.234 793.898 146.234 793.42C146.234 792.986 146.112 792.632 145.869 792.359C145.627 792.087 145.307 791.865 144.911 791.695C144.514 791.524 144.086 791.375 143.626 791.247L142.015 790.787C140.992 790.493 140.183 790.073 139.586 789.528C138.99 788.982 138.691 788.268 138.691 787.386C138.691 786.653 138.889 786.014 139.286 785.469C139.686 784.919 140.223 784.493 140.896 784.19C141.574 783.884 142.33 783.73 143.166 783.73C144.009 783.73 144.759 783.881 145.416 784.184C146.072 784.482 146.592 784.891 146.975 785.411C147.363 785.931 147.568 786.521 147.589 787.182H146.055ZM157.533 787.182C157.457 786.534 157.146 786.031 156.6 785.673C156.055 785.315 155.386 785.136 154.593 785.136C154.013 785.136 153.506 785.23 153.072 785.418C152.641 785.605 152.305 785.863 152.062 786.191C151.823 786.519 151.704 786.892 151.704 787.31C151.704 787.659 151.787 787.96 151.953 788.211C152.124 788.458 152.341 788.665 152.605 788.831C152.869 788.993 153.146 789.127 153.436 789.234C153.726 789.336 153.992 789.419 154.235 789.483L155.565 789.841C155.906 789.93 156.285 790.054 156.702 790.212C157.124 790.369 157.527 790.585 157.911 790.857C158.298 791.126 158.618 791.471 158.869 791.893C159.121 792.315 159.246 792.832 159.246 793.446C159.246 794.153 159.061 794.793 158.69 795.364C158.324 795.935 157.787 796.388 157.08 796.725C156.376 797.062 155.522 797.23 154.516 797.23C153.579 797.23 152.767 797.079 152.081 796.776C151.399 796.474 150.862 796.052 150.47 795.511C150.082 794.969 149.863 794.341 149.812 793.625H151.448C151.491 794.119 151.657 794.528 151.947 794.852C152.241 795.172 152.612 795.411 153.059 795.568C153.511 795.722 153.996 795.798 154.516 795.798C155.121 795.798 155.665 795.7 156.146 795.504C156.628 795.304 157.009 795.027 157.29 794.673C157.572 794.315 157.712 793.898 157.712 793.42C157.712 792.986 157.591 792.632 157.348 792.359C157.105 792.087 156.786 791.865 156.389 791.695C155.993 791.524 155.565 791.375 155.104 791.247L153.494 790.787C152.471 790.493 151.661 790.073 151.065 789.528C150.468 788.982 150.17 788.268 150.17 787.386C150.17 786.653 150.368 786.014 150.764 785.469C151.165 784.919 151.702 784.493 152.375 784.19C153.053 783.884 153.809 783.73 154.644 783.73C155.488 783.73 156.238 783.881 156.894 784.184C157.55 784.482 158.07 784.891 158.454 785.411C158.842 785.931 159.046 786.521 159.067 787.182H157.533ZM78.5852 819V805.909H86.4858V807.315H80.1705V811.739H86.0767V813.145H80.1705V817.594H86.5881V819H78.5852ZM89.343 805.909H91.2351L95.6839 816.776H95.8374L100.286 805.909H102.178V819H100.695V809.054H100.567L96.4766 819H95.0447L90.9538 809.054H90.826V819H89.343V805.909ZM105.894 819H104.232L109.039 805.909H110.675L115.482 819H113.82L109.908 807.98H109.806L105.894 819ZM106.507 813.886H113.206V815.293H106.507V813.886ZM119.106 805.909V819H117.521V805.909H119.106ZM122.284 819V805.909H123.87V817.594H129.955V819H122.284ZM78.5852 841V827.909H83.0085C84.0355 827.909 84.875 828.094 85.527 828.465C86.1832 828.832 86.669 829.328 86.9844 829.955C87.2997 830.581 87.4574 831.28 87.4574 832.051C87.4574 832.822 87.2997 833.523 86.9844 834.154C86.6733 834.785 86.1918 835.288 85.5398 835.663C84.8878 836.033 84.0526 836.219 83.0341 836.219H79.8636V834.812H82.983C83.6861 834.812 84.2507 834.691 84.6768 834.448C85.103 834.205 85.4119 833.877 85.6037 833.464C85.7997 833.046 85.8977 832.575 85.8977 832.051C85.8977 831.527 85.7997 831.058 85.6037 830.645C85.4119 830.232 85.1009 829.908 84.6705 829.673C84.2401 829.435 83.669 829.315 82.9574 829.315H80.1705V841H78.5852ZM90.011 841V827.909H91.5962V833.739H98.5764V827.909H100.162V841H98.5764V835.145H91.5962V841H90.011ZM114.381 834.455C114.381 835.835 114.131 837.028 113.633 838.034C113.134 839.04 112.45 839.815 111.581 840.361C110.712 840.906 109.719 841.179 108.602 841.179C107.486 841.179 106.493 840.906 105.624 840.361C104.754 839.815 104.07 839.04 103.572 838.034C103.073 837.028 102.824 835.835 102.824 834.455C102.824 833.074 103.073 831.881 103.572 830.875C104.07 829.869 104.754 829.094 105.624 828.548C106.493 828.003 107.486 827.73 108.602 827.73C109.719 827.73 110.712 828.003 111.581 828.548C112.45 829.094 113.134 829.869 113.633 830.875C114.131 831.881 114.381 833.074 114.381 834.455ZM112.847 834.455C112.847 833.321 112.657 832.364 112.278 831.585C111.903 830.805 111.393 830.214 110.75 829.814C110.111 829.413 109.395 829.213 108.602 829.213C107.81 829.213 107.092 829.413 106.448 829.814C105.809 830.214 105.3 830.805 104.92 831.585C104.545 832.364 104.358 833.321 104.358 834.455C104.358 835.588 104.545 836.545 104.92 837.325C105.3 838.104 105.809 838.695 106.448 839.095C107.092 839.496 107.81 839.696 108.602 839.696C109.395 839.696 110.111 839.496 110.75 839.095C111.393 838.695 111.903 838.104 112.278 837.325C112.657 836.545 112.847 835.588 112.847 834.455ZM127.427 827.909V841H125.893L118.759 830.722H118.631V841H117.046V827.909H118.58L125.739 838.213H125.867V827.909H127.427ZM130.599 841V827.909H138.499V829.315H132.184V833.739H138.09V835.145H132.184V839.594H138.602V841H130.599ZM156.8 827.909V841H155.266L148.132 830.722H148.004V841H146.419V827.909H147.953L155.112 838.213H155.24V827.909H156.8ZM171.017 834.455C171.017 835.835 170.768 837.028 170.27 838.034C169.771 839.04 169.087 839.815 168.218 840.361C167.348 840.906 166.355 841.179 165.239 841.179C164.123 841.179 163.13 840.906 162.26 840.361C161.391 839.815 160.707 839.04 160.208 838.034C159.71 837.028 159.461 835.835 159.461 834.455C159.461 833.074 159.71 831.881 160.208 830.875C160.707 829.869 161.391 829.094 162.26 828.548C163.13 828.003 164.123 827.73 165.239 827.73C166.355 827.73 167.348 828.003 168.218 828.548C169.087 829.094 169.771 829.869 170.27 830.875C170.768 831.881 171.017 833.074 171.017 834.455ZM169.483 834.455C169.483 833.321 169.294 832.364 168.914 831.585C168.539 830.805 168.03 830.214 167.387 829.814C166.748 829.413 166.032 829.213 165.239 829.213C164.446 829.213 163.728 829.413 163.085 829.814C162.446 830.214 161.936 830.805 161.557 831.585C161.182 832.364 160.995 833.321 160.995 834.455C160.995 835.588 161.182 836.545 161.557 837.325C161.936 838.104 162.446 838.695 163.085 839.095C163.728 839.496 164.446 839.696 165.239 839.696C166.032 839.696 166.748 839.496 167.387 839.095C168.03 838.695 168.539 838.104 168.914 837.325C169.294 836.545 169.483 835.588 169.483 834.455ZM173.752 841.102C173.436 841.102 173.166 840.989 172.94 840.763C172.714 840.538 172.601 840.267 172.601 839.952C172.601 839.636 172.714 839.366 172.94 839.14C173.166 838.914 173.436 838.801 173.752 838.801C174.067 838.801 174.338 838.914 174.563 839.14C174.789 839.366 174.902 839.636 174.902 839.952C174.902 840.161 174.849 840.352 174.742 840.527C174.64 840.702 174.502 840.842 174.327 840.949C174.156 841.051 173.965 841.102 173.752 841.102Z" fill="black"/>
</g>
<defs>
<clipPath id="clip0_5_29">
<rect width="1440" height="1024" fill="white"/>
</clipPath>
</defs>
</svg>
